# xmcd CD database file
#
# Track frame offsets:
#	150
#	17300
#	36200
#	59880
#	75112
#	94275
#	109907
#	128542
#	149900
#	170467
#	184950
#	203550
#	230220
#	246680
#	261742
#	279420
#
# Disc length: 4002 seconds
#
# Revision: 0
# Processed by: cddbd v1.5.1PL0 Copyright (c) Steve Scherf et al.
# Submitted via: CDex 1.51
#
DISCID=f30fa010
DTITLE=Various Artist - The Best Of AOR
DYEAR=1992
DGENRE=Pop
TTITLE0=J.D.サウザー/ユア・オンリー・ロインリー
TTITLE1=TOTO/ジョージー・ポージー
TTITLE2=ジョージ・デューク/シャイン・オン
TTITLE3=バーティー・ヒギンス/キー・ラーゴ〜遙かなる青い海
TTITLE4=アルバート・ハモンド/落葉のコンチェルト
TTITLE5=カンサス/すべては風の中に
TTITLE6=カーラ・ボノフ/香りはバイオレット
TTITLE7=ジミー・ウェッブ/シザーズ・カット
TTITLE8=ジェイムス・テイラー＆J.D.サウザー/憶い出の町
TTITLE9=フィービ・スノウ/ネヴァー・レッティング・ゴー
TTITLE10=ナイジェル・オルソン/涙のダンシング・シューズ
TTITLE11=ジミー・メッシーナ/シーイング・ユー
TTITLE12=ネッド・ドヒニー/愛を求めて
TTITLE13=ラリー・リー/ロンリー・フリーウェイ
TTITLE14=ポール・デイヴィス/アイ・ゴー・クレイジー
TTITLE15=バーティー・ヒギンズ/カサブランカ
EXTD=YEAR: 1992
EXTT0=
EXTT1=
EXTT2=
EXTT3=
EXTT4=
EXTT5=
EXTT6=
EXTT7=
EXTT8=
EXTT9=
EXTT10=
EXTT11=
EXTT12=
EXTT13=
EXTT14=
EXTT15=
PLAYORDER=
